<svg id="Layer_1" data-name="Layer 1" xmlns="http://www.w3.org/2000/svg" viewBox="0 0 584.66 147.06"><defs><style>.cls-1{fill:none;stroke:#fec722;stroke-miterlimit:10;stroke-width:4px;}.cls-2{fill:#fec722;}.cls-3{isolation:isolate;}.cls-4{fill:#fff;}</style></defs><title>logo-3</title><g id="Layer_2" data-name="Layer 2"><g id="Layer_2-2" data-name="Layer 2-2"><g id="Leg_R" data-name="Leg R"><circle class="cls-1" cx="116.07" cy="27.36" r="12.65"/><path class="cls-2" d="M106.3,54.45a59.85,59.85,0,0,1,8.12-10.75,11,11,0,0,1,2.9-2.41Q112.24,39,107,37.09a35.59,35.59,0,0,1-3.28,16,51.18,51.18,0,0,1-8,11.86c-.32.37-.67.84-.51,1.3a1.39,1.39,0,0,0,.37.5l4.42,4.5a.51.51,0,0,0,.32.19c.25,0,.37-.29.41-.54a53.34,53.34,0,0,1,5.61-16.45" transform="translate(0.01 0.03)"/><path class="cls-2" d="M90.34,83.93a1.09,1.09,0,0,0-1.42-.64l-.17.08a3.6,3.6,0,0,1-.77.36,16.52,16.52,0,0,1-2.78.57c-.23,0-.09.16-.27.86S84,90,84,90s-3.22,18.8-3.43,20.16-2.87,18.62-3,20.33-.88,8.18-.93,8.82-.52,6.41-.54,6.93.32,1.07.34.61,3.7-13.64,3.7-13.64,3.54-12.75,4-14.07S90.46,98.62,90.67,98s1.85-5,2.27-6.16a.7.7,0,0,0,0-.53c-.3-.93-1.31-4-1.4-4.23Z" transform="translate(0.01 0.03)"/></g><g id="Leg_L" data-name="Leg L"><circle class="cls-1" cx="66.18" cy="18.69" r="12.65"/><path class="cls-2" d="M52.07,16.85s0-5.06-1.44-8-4.34-5.79-6.51-5.79S42,2.39,42,1.67,43,.08,44.41,0a8.63,8.63,0,0,1,3.8.52c.86.38,2.91,2.55,3.55,3.05a6.75,6.75,0,0,0,2.75,1.35,27.13,27.13,0,0,0,4.75.48h3.05s-6.94,5.09-7.64,6.83-2.12,5.19-2.12,5.19-.37.12-.42-.22Z" transform="translate(0.01 0.03)"/><path class="cls-2" d="M61.19,31.74a1.11,1.11,0,0,0,.34.22c1,.41,2,.83,2.94,1.29,2,.93,4.27,2,5.67,3.76s1.43,3.63,1.65,5.55a28.62,28.62,0,0,0,1.35,6.53c1.54,4.21,4.52,7.62,7,11.27A86.63,86.63,0,0,1,86.83,72,188.61,188.61,0,0,1,94.7,92c2.26,6.56,4.25,13.19,6.4,19.79.29.92.59,1.84.89,2.77,0,0,3.23,10.18,3.29,10.69s5,17.9,5,17.9l.93,3.4s.12-3.94,0-5.69-2.53-20.31-2.53-20.31l-3.4-21.72-2.86-16.27c-.6-2.73-1.2-5.47-1.79-8.2a3.49,3.49,0,0,0-.2-.7,3.63,3.63,0,0,0-.63-.88c-3-3.43-6.55-6.34-9.82-9.53a81.41,81.41,0,0,1-8.79-9.77A43.46,43.46,0,0,1,77.64,48a23.89,23.89,0,0,1-2.14-5.91,24.3,24.3,0,0,1,.14-10.6,51.71,51.71,0,0,1,1.59-5.14S74,30.21,71.56,30.69s-9,.66-9.82.36c-.28-.1-.51-.06-.6.24A.43.43,0,0,0,61.19,31.74Z" transform="translate(0.01 0.03)"/></g><g id="Wing_L" data-name="Wing L"><path class="cls-2" d="M.37,57a2.41,2.41,0,0,1,1,.09l1.77.18c1.17.12,2.35.23,3.54.32a64.37,64.37,0,0,0,7.08.17,34.23,34.23,0,0,0,8.65-1.36,90.8,90.8,0,0,0,9.52-3.94A60.91,60.91,0,0,1,50.6,47.38,31.8,31.8,0,0,1,60.94,48a18.78,18.78,0,0,1,6.61,3c1.53,1.12,2.88,2.46,4.32,3.68s3.15,2.61,4.79,3.84a12.68,12.68,0,0,1,2.55,2.3c2.11,2.76,3.59,6.12,5.17,9.2-4.4-.18-8.95-.65-13-2.41a17.52,17.52,0,0,1-2.49-1.34,35.59,35.59,0,0,1-4.43-3.79,24.82,24.82,0,0,0-6-4.37,13.46,13.46,0,0,0-7.89-1c-2.18.35-4.33,1-6.47,1.5-2.33.57-4.66,1.1-7,1.86-3.41,1.13-6.72,2.56-10,4-.46.21-.93.38-1.4.57-1.17.46-2.28,1.07-3.46,1.53a9.65,9.65,0,0,1-3.32.6,22,22,0,0,1-4.12-.42,29.54,29.54,0,0,1-9-2.75,18.23,18.23,0,0,1-4.11-3.09,5.59,5.59,0,0,1-1.72-3,.84.84,0,0,1,.19-.8A.36.36,0,0,1,.37,57Z" transform="translate(0.01 0.03)"/><path class="cls-2" d="M20.84,69.05a1.52,1.52,0,0,1,.48-.27L35.1,63.07h.07a54.53,54.53,0,0,1,9.44-2.91c1.77-.38,3.54-.9,5.36-1.13a17.17,17.17,0,0,1,8.5,1.23,6.13,6.13,0,0,1,2.26,1.53.27.27,0,0,1,0,.38.24.24,0,0,1-.16.07,8,8,0,0,0-1.14.16q-.87.12-1.74.3a46.77,46.77,0,0,0-7.32,2.75c-1.94.8-3.84,1.68-5.72,2.59L37.9,71.28l-1.35.65a11.59,11.59,0,0,1-3.38,1.17,30.33,30.33,0,0,1-4.47.18,21.84,21.84,0,0,1-3.33-.23,7.28,7.28,0,0,1-3.19-1.13,3.9,3.9,0,0,1-1.1-1.19c-.23-.38-.61-1.12-.34-1.55A.64.64,0,0,1,20.84,69.05Z" transform="translate(0.01 0.03)"/><path class="cls-2" d="M34.23,75.46a.22.22,0,0,1,0-.32l0,0,9.84-4.69,5.33-2.56c1.73-.83,3.46-1.65,5.25-2.36A21.09,21.09,0,0,1,59,64.3a25.7,25.7,0,0,1,3.5-.3,1.38,1.38,0,0,1,.64.08c.49.2.81.71,1.17,1.07a11.11,11.11,0,0,0,1.26,1.11A16.72,16.72,0,0,0,68.51,68c-.11.27-.21.63-.54.72a2,2,0,0,1-.49,0,7.34,7.34,0,0,0-2.48.65c-.81.3-1.59.67-2.38,1l-1.73.77c-.84.34-2.2.91-3,1.31-1.72.83-3.43,1.69-5.13,2.56L50,76.47a17.7,17.7,0,0,1-2.6,1.24,17.38,17.38,0,0,1-4.82.46c-2.66,0-5.38.11-7.46-1.81A9,9,0,0,1,34.23,75.46Z" transform="translate(0.01 0.03)"/><path class="cls-2" d="M48.27,79.35a4.07,4.07,0,0,0,.81-.4l.83-.41c.51-.25,1-.47,1.54-.74l3.28-1.74c2.15-1.12,4.3-2.27,6.47-3.35a38.09,38.09,0,0,1,6.43-2.51c.61-.17,1.23-.33,1.85-.48a6.75,6.75,0,0,1,1.18-.19,2.5,2.5,0,0,1,.67.07c1.84.38,3.59,1.11,5.45,1.44,1.3.23,2.48.25,3.79.41-.11,0-.2.18-.31.24l-.28.15-6.53,3.54a3.64,3.64,0,0,1-.8.43l-.82.45-1.66.9c-1.18.64-2.34,1.32-3.54,1.94A22.62,22.62,0,0,1,63,80.53a23.74,23.74,0,0,1-2.61.66,23.27,23.27,0,0,1-2.89.21H53.56a8.24,8.24,0,0,1-3.11-.52l-.33-.17A17.59,17.59,0,0,1,48.27,79.35Z" transform="translate(0.01 0.03)"/><path class="cls-2" d="M65.86,81.4c3.14-1.57,6.29-3.14,9.33-4.92,1-.58,1.89-1.27,2.86-1.86a22.57,22.57,0,0,1,3-1.48A27.66,27.66,0,0,1,84.37,72l1-.27s.67,1.63.73,1.78l.79,1.93,1.62,4,.7,1.71c0,.11-.4.47-.47.54a7.17,7.17,0,0,1-.52.58,2.88,2.88,0,0,1-.73.4,11.08,11.08,0,0,1-1.71.37L84,83.31c-1.22.19-2.44.35-3.67.48a39.66,39.66,0,0,1-7.39.13c-.82-.07-1.63-.16-2.44-.28l-.91-.15" transform="translate(0.01 0.03)"/></g><g id="Wing_R" data-name="Wing R"><path class="cls-2" d="M185,57a2.41,2.41,0,0,0-1,.09c-.59,0-1.18.12-1.76.18-1.18.12-2.36.23-3.54.32a64.55,64.55,0,0,1-7.09.17A34.41,34.41,0,0,1,163,56.43a90.8,90.8,0,0,1-9.52-3.94,60.84,60.84,0,0,0-18.71-5.11,31.8,31.8,0,0,0-10.34.57,18.78,18.78,0,0,0-6.61,3c-1.53,1.12-2.88,2.46-4.32,3.68s-3.15,2.61-4.78,3.84a12.19,12.19,0,0,0-2.56,2.3c-2.11,2.76-3.59,6.12-5.17,9.2,4.41-.18,9-.65,13-2.41a15.71,15.71,0,0,0,2.49-1.34A35.74,35.74,0,0,0,121,62.41,25,25,0,0,1,127,58a13.46,13.46,0,0,1,7.89-1c2.18.35,4.33,1,6.47,1.5,2.34.57,4.67,1.1,6.95,1.86,3.41,1.13,6.72,2.56,10,4,.46.21.93.38,1.4.57,1.17.46,2.28,1.07,3.46,1.53a9.65,9.65,0,0,0,3.32.6,22,22,0,0,0,4.12-.42A29.49,29.49,0,0,0,179.56,64a18.23,18.23,0,0,0,4.11-3.09,5.59,5.59,0,0,0,1.72-3,.84.84,0,0,0-.19-.8A.31.31,0,0,0,185,57Z" transform="translate(0.01 0.03)"/><path class="cls-2" d="M164.57,69.05a1.69,1.69,0,0,0-.47-.27l-13.79-5.71h-.07a54.69,54.69,0,0,0-9.43-2.91c-1.78-.38-3.55-.9-5.36-1.13a17.21,17.21,0,0,0-8.51,1.23,6.13,6.13,0,0,0-2.26,1.53.27.27,0,0,0,0,.38.24.24,0,0,0,.16.07,8,8,0,0,1,1.14.16q.89.12,1.74.3a46.77,46.77,0,0,1,7.32,2.75c1.94.8,3.84,1.68,5.72,2.59l6.73,3.27,1.35.65a11.59,11.59,0,0,0,3.38,1.17,30.33,30.33,0,0,0,4.47.18,21.84,21.84,0,0,0,3.33-.23A7.28,7.28,0,0,0,163.23,72a3.9,3.9,0,0,0,1.1-1.19c.23-.38.61-1.12.34-1.55A.86.86,0,0,0,164.57,69.05Z" transform="translate(0.01 0.03)"/><path class="cls-2" d="M151.19,75.46a.23.23,0,0,0,0-.32l0,0-9.83-4.69-5.34-2.56c-1.73-.83-3.46-1.65-5.25-2.36a20.82,20.82,0,0,0-4.32-1.2,25.7,25.7,0,0,0-3.5-.3,1.38,1.38,0,0,0-.64.08c-.49.2-.81.71-1.17,1.07a12,12,0,0,1-1.25,1.11A17.5,17.5,0,0,1,116.9,68c.11.27.21.63.54.72a2,2,0,0,0,.49,0,7.34,7.34,0,0,1,2.48.65c.81.3,1.59.67,2.38,1l1.73.77c.84.34,2.2.91,3,1.31,1.72.83,3.43,1.69,5.13,2.56l2.81,1.46a17.7,17.7,0,0,0,2.6,1.24,17.38,17.38,0,0,0,4.82.46c2.67,0,5.38.11,7.46-1.81A9,9,0,0,0,151.19,75.46Z" transform="translate(0.01 0.03)"/><path class="cls-2" d="M137.14,79.35a4,4,0,0,1-.8-.4l-.84-.41c-.51-.25-1-.47-1.54-.74l-3.28-1.74c-2.15-1.12-4.29-2.27-6.46-3.35a38.19,38.19,0,0,0-6.44-2.51c-.61-.17-1.23-.33-1.84-.48a6.86,6.86,0,0,0-1.19-.19,2.47,2.47,0,0,0-.66.07c-1.84.38-3.6,1.11-5.46,1.44-1.3.23-2.48.25-3.79.41.11,0,.2.18.31.24l.28.15L112,75.38a3.64,3.64,0,0,0,.8.43l.83.45,1.65.9c1.18.64,2.35,1.32,3.55,1.94a22.09,22.09,0,0,0,3.58,1.43,16.13,16.13,0,0,0,5.51.87h3.93a8.24,8.24,0,0,0,3.11-.52l.33-.17A17.59,17.59,0,0,0,137.14,79.35Z" transform="translate(0.01 0.03)"/><path class="cls-2" d="M101.6,72.59s2.26,9.82,2.26,10.45,6.54,1,6.54,1a26.64,26.64,0,0,0,4.52-.66,16.76,16.76,0,0,0,3.4-1.8" transform="translate(0.01 0.03)"/></g><g class="cls-3"><path class="cls-4" d="M217.38,93.24a20.39,20.39,0,0,1-8.26-8.5,27.41,27.41,0,0,1-2.88-12.91,28.71,28.71,0,0,1,3.55-14.26,25.73,25.73,0,0,1,9.84-10A28.09,28.09,0,0,1,233.81,44a43.45,43.45,0,0,1,6,.43q3,.44,5.14.87c1.4.29,2.28.49,2.65.6l.31.47c-.1.32-.27,1.08-.51,2.29s-.5,2.79-.79,4.74-.51,4-.67,6.16l-3.79.32c0-.27.1-.75.15-1.46s.08-1.52.08-2.41q0-7.35-11.61-7.35a16.56,16.56,0,0,0-9.16,2.53,16.35,16.35,0,0,0-6.09,7.15,25.72,25.72,0,0,0-2.13,10.86,30.32,30.32,0,0,0,2.25,12.09A18.61,18.61,0,0,0,222,89.4a16,16,0,0,0,9.48,2.89,12.25,12.25,0,0,0,8.65-3q3.28-3,4.78-9.44l3.79-.32q-.24,1.19-1,5.25a74.36,74.36,0,0,0-1.11,7.63l-.47.71a19.15,19.15,0,0,1-2.41.91,48.27,48.27,0,0,1-6,1.54,40.38,40.38,0,0,1-7.78.71A25.16,25.16,0,0,1,217.38,93.24Z" transform="translate(0.01 0.03)"/><path class="cls-4" d="M258.93,92.37A16.93,16.93,0,0,0,263,91.7a2.49,2.49,0,0,0,1.54-1.62,14.75,14.75,0,0,0,.4-4.11V62.74a31.4,31.4,0,0,0-6.17.52,3.44,3.44,0,0,0-2.41,1.81,20.23,20.23,0,0,0-1.22,5l-3.4.24a98.52,98.52,0,0,0,.87-10.83l.48-.55,5.29.63H277L282.4,59l.47.55q.15,3.31.87,10.59l-3.4.24a23.51,23.51,0,0,0-1.26-5.1,3.43,3.43,0,0,0-2.25-1.86,28.41,28.41,0,0,0-5.81-.63q-.31,3.32-.59,10.94t-.28,14.58a4.47,4.47,0,0,0,.75,2.92,3.25,3.25,0,0,0,2.57.87,27,27,0,0,0,3.32-.16l.15.24-.55,3.4-2.05-.08-7.11-.16c-2.37,0-5.3.1-8.77.32Z" transform="translate(0.01 0.03)"/><path class="cls-4" d="M286.5,110.93a7.37,7.37,0,0,0,2.57-.71,2.49,2.49,0,0,0,1.14-1.58,13.4,13.4,0,0,0,.32-3.4c0-2.21,0-4.1.08-5.68l.08-7.43V68.59a6.07,6.07,0,0,0-.87-3.75,3.68,3.68,0,0,0-3-1.07H286l-.24-.32.24-2.6q3.39-.56,6.75-1.31c2.24-.5,3.68-.83,4.31-1l.47.64c-.05.26-.17.83-.35,1.7s-.33,1.72-.44,2.56L297,64q7.42-5.15,9.16-5.14a15.23,15.23,0,0,1,8,2.09,14,14,0,0,1,5.37,5.89,19.12,19.12,0,0,1,1.9,8.69,21,21,0,0,1-9.88,17.89,18.16,18.16,0,0,1-9.79,2.81c-1.16,0-2.31,0-3.44-.12s-1.91-.15-2.33-.2l.08,8.14c0,2.42.25,4.07.75,4.94a3.12,3.12,0,0,0,3,1.3l2.69-.08.16.24-.63,3h-7.51q-2.85,0-5.25.24l-3.12.31ZM312.29,88.3q3-3.6,3-9.84A18,18,0,0,0,314,71.27a12.7,12.7,0,0,0-3.79-5.13,8.35,8.35,0,0,0-5.25-1.9A9.54,9.54,0,0,0,301,65.31a19.62,19.62,0,0,0-4.35,2.8q-.63,10.35-.63,22.28a21.54,21.54,0,0,0,3.75,1.07,21.13,21.13,0,0,0,4.15.43A10.3,10.3,0,0,0,312.29,88.3Z" transform="translate(0.01 0.03)"/><path class="cls-4" d="M364.71,92.13l-.55,3.32c-.53,0-1.54,0-3-.08s-3.1-.08-4.78-.08l-7.27.08.55-3.24c1.79,0,3-.45,3.6-1.18s.91-2.24.91-4.51l.07-16.19Q343.54,81,335.8,89.68a2.48,2.48,0,0,0,.71,1.86,3.12,3.12,0,0,0,2,.51A11.92,11.92,0,0,0,340,92c.48,0,.79-.08.95-.08l.16.24-.55,3.32c-.37,0-1.11,0-2.22-.08s-2.23-.08-3.39-.08q-2.61,0-6,.2a16,16,0,0,0-3.43.35l.39-3.31a6.87,6.87,0,0,0,3.68-1.43,4.77,4.77,0,0,0,.9-3.31l.08-22a4.51,4.51,0,0,0-.43-2.41,2.13,2.13,0,0,0-1.78-.59l-2,.08-.16-.32.39-3.08,6.88.08c1.1,0,2.45,0,4-.16s2.6-.18,3.08-.23l-.24,3.31a7.93,7.93,0,0,0-2.49.64,2.08,2.08,0,0,0-1,1.22,11.08,11.08,0,0,0-.35,2.73l-.08,2.29-.63,15q9.24-9,18.4-19.28a2.71,2.71,0,0,0-.59-1.82,2.64,2.64,0,0,0-1.78-.47l-1.89.08-.16-.32.39-3.08,6.4.08c1.22,0,2.66,0,4.35-.16s2.79-.18,3.32-.23L364,62.5a6.69,6.69,0,0,0-3,.91,2.91,2.91,0,0,0-.79,2.18l-.16,3.71q-.63,13.59-.63,19a5.64,5.64,0,0,0,.55,3,2.34,2.34,0,0,0,2.06.79,12.93,12.93,0,0,0,1.58-.08,4.63,4.63,0,0,0,.94-.16Z" transform="translate(0.01 0.03)"/><path class="cls-4" d="M423.64,93.08l-.39,2.37-5.61.63a5.71,5.71,0,0,1-3.48-1.34,13.81,13.81,0,0,1-3.23-3.87l-6.88-11.93h-5.68q-.24,5.44-.24,9.32a5.38,5.38,0,0,0,.59,3,2.56,2.56,0,0,0,2.17.79,11.92,11.92,0,0,0,1.5-.08c.48,0,.79-.08.95-.08l.16.24L403,95.45c-.37,0-1.11,0-2.22-.08s-2.23-.08-3.39-.08q-2.61,0-6,.2a16,16,0,0,0-3.43.35l.39-3.31A6.79,6.79,0,0,0,392,91.1a4.72,4.72,0,0,0,.91-3.31V78.94H387.3l-6.87,11.93a13.67,13.67,0,0,1-3.24,3.87,5.69,5.69,0,0,1-3.47,1.34l-5.61-.63-.4-2.37.32-.32q4.67,0,7.43-4.66l4.74-7.82a9.7,9.7,0,0,1,4.1-4l-4.18-6.79a12.59,12.59,0,0,0-2.61-3.24,4.59,4.59,0,0,0-3-1,12.79,12.79,0,0,0-4.59,1.19l-.63-.56c-.05-.58-.08-1.37-.08-2.37a7,7,0,0,1,.32-2.21,5.72,5.72,0,0,1,1.26-2A11.38,11.38,0,0,1,377.31,61a19.22,19.22,0,0,1,5,6.09l5,8.45H393V65.82a4.51,4.51,0,0,0-.43-2.41,2.13,2.13,0,0,0-1.78-.59l-2,.08-.16-.32L389,59.5l6.88.08c1.1,0,2.45,0,4-.16s2.6-.18,3.08-.23l-.24,3.31a7.93,7.93,0,0,0-2.49.64,2.08,2.08,0,0,0-1,1.22,11.08,11.08,0,0,0-.35,2.73c-.05,1.74-.19,4.55-.4,8.45h5.53l5-8.45a19.22,19.22,0,0,1,5-6.09,11.33,11.33,0,0,1,6.51-1.66,5.61,5.61,0,0,1,1.27,2,7,7,0,0,1,.31,2.21c0,1,0,1.79-.08,2.37l-.63.56a12.7,12.7,0,0,0-4.58-1.19,4.57,4.57,0,0,0-3,1,12.59,12.59,0,0,0-2.61,3.24l-3.4,5.61,8,12.87q2.93,4.74,7.51,4.74Z" transform="translate(0.01 0.03)"/><path class="cls-4" d="M473.26,89.13a25.4,25.4,0,0,1-7.51,5.21,19.73,19.73,0,0,1-8.21,1.9c-5.17,0-9.27-1.23-12.33-3.68a12,12,0,0,1-4.58-9.91,10.82,10.82,0,0,1,2.33-7A19.64,19.64,0,0,1,448.17,71c1.93-1.16,2.89-1.66,2.89-1.5V69q-6.48-6.8-6.48-12.4a10.67,10.67,0,0,1,2.05-6.4,14,14,0,0,1,5.65-4.5,18.87,18.87,0,0,1,8-1.66,26,26,0,0,1,4.66.39,25.61,25.61,0,0,1,3.36.83c.81.29,1.33.49,1.54.6L470,47l-3.8,5.85-.78.08a22.32,22.32,0,0,0-4.51-3.44,8.55,8.55,0,0,0-3.87-.83A7.49,7.49,0,0,0,452,50.3a5.45,5.45,0,0,0-1.9,4.38,11.51,11.51,0,0,0,1.07,5,20.64,20.64,0,0,0,3.55,5A86.63,86.63,0,0,0,462,71.51l12.64,10.9a15,15,0,0,0,1.42-6.79q0-4.74-1.5-7a5.18,5.18,0,0,0-4.66-2.29,14.19,14.19,0,0,0-2.73.27,12.61,12.61,0,0,0-1.77.44l-1.11-3.4c.1,0,.33-.18.67-.39a7.18,7.18,0,0,1,1.46-.64,8.27,8.27,0,0,1,2.06-.39l16.27-.95c2-.16,3.49-.3,4.46-.43s1.52-.28,1.62-.44l.79,1.9-1,2.45A2.51,2.51,0,0,1,489.1,66a17.72,17.72,0,0,1-4,.28h-7.9l-.24.47a9.78,9.78,0,0,1,2.45,3.44,10.73,10.73,0,0,1,.87,4.3,18.27,18.27,0,0,1-3.16,10l11.06,9.32v1.26c-.37.27-1.16.74-2.37,1.42a6.52,6.52,0,0,1-2.53,1Q482.57,97.5,473.26,89.13ZM466,90.23a15,15,0,0,0,5.17-3L453.35,71.35a12.12,12.12,0,0,0-4.94,4.07,9.67,9.67,0,0,0-1.86,5.65,8.89,8.89,0,0,0,3.6,7.43q3.59,2.76,9.6,2.76A18.67,18.67,0,0,0,466,90.23Z" transform="translate(0.01 0.03)"/><path class="cls-4" d="M552.1,92.76l-.48,2.69-6.55,1a6.56,6.56,0,0,1-4.27-2,22.12,22.12,0,0,1-4.26-5.53L526.26,71.67h-6.47l-.4,14.77c0,2.11.16,3.53.63,4.27s1.43,1.1,2.85,1.1c.79,0,1.52,0,2.21-.07a12.37,12.37,0,0,0,1.34-.16l.16.31-.71,3.64c-.69-.06-2-.11-3.91-.16s-3.89-.08-5.89-.08l-9.08.08.79-3.56a12.25,12.25,0,0,0,3.75-.79,3.13,3.13,0,0,0,1.7-1.69,10.6,10.6,0,0,0,.55-3.52l.08-33.18a6.71,6.71,0,0,0-.59-3.4,2.74,2.74,0,0,0-2.41-.87c-.53,0-1.05,0-1.58.08a10.68,10.68,0,0,1-1.11.08l-.15-.31.55-3.48c.63.05,1.82.11,3.55.16s3.48.08,5.22.08a47.92,47.92,0,0,0,4.94-.28c1.81-.18,3-.33,3.59-.43l-.32,3.55a8.06,8.06,0,0,0-4.06,1.46,4.48,4.48,0,0,0-1.15,3.28L520,67.4l6.39.48,7.27-12.17q3.79-6.32,7.07-8.89a13,13,0,0,1,8.26-2.56,4.51,4.51,0,0,1,1.38,2.37,13,13,0,0,1,.43,3.47,16.61,16.61,0,0,1-.07,1.9l-.72.55a11.94,11.94,0,0,0-4.81-1.1A6.94,6.94,0,0,0,540.6,53a17.13,17.13,0,0,0-3.75,4.66l-6.16,10.19L542,85.81a17.82,17.82,0,0,0,4.46,5,9,9,0,0,0,5.33,1.66Z" transform="translate(0.01 0.03)"/><path class="cls-4" d="M558.34,94a14.86,14.86,0,0,1-5.41-6.21A20.48,20.48,0,0,1,551,78.7a21.56,21.56,0,0,1,2.41-10.15,18.65,18.65,0,0,1,6.6-7.27,17.1,17.1,0,0,1,9.32-2.65,14.57,14.57,0,0,1,7.94,2.22,14.72,14.72,0,0,1,5.45,6.2,20.64,20.64,0,0,1,1.93,9.12,21.68,21.68,0,0,1-2.4,10.15,18.58,18.58,0,0,1-6.6,7.27,17,17,0,0,1-9.32,2.65A14.54,14.54,0,0,1,558.34,94Zm17.22-5.26c1.74-2.39,2.61-5.65,2.61-9.75a23.15,23.15,0,0,0-1.42-8.34,13.3,13.3,0,0,0-4-5.73A9.07,9.07,0,0,0,567,62.9a8.22,8.22,0,0,0-7,3.63q-2.61,3.64-2.61,9.88a22.76,22.76,0,0,0,1.42,8.29,13.15,13.15,0,0,0,3.95,5.65,9.1,9.1,0,0,0,5.85,2A8.24,8.24,0,0,0,575.56,88.77Z" transform="translate(0.01 0.03)"/></g></g></g></svg>