<svg xmlns="http://www.w3.org/2000/svg" viewBox="0 0 607.67 146.99"><defs><style>.cls-1{fill:none;stroke:#fec722;stroke-miterlimit:10;stroke-width:4px;}.cls-2{fill:#fec722;}.cls-3{font-size:85px;fill:#fff;font-family:Garamond-Italic, Garamond;font-style:italic;letter-spacing:-0.03em;}</style></defs><title>Asset 2</title><g id="Layer_2" data-name="Layer 2"><g id="Layer_2-2" data-name="Layer 2"><g id="Leg_R" data-name="Leg R"><circle class="cls-1" cx="116.06" cy="27.33" r="12.65"/><path class="cls-2" d="M106.3,54.45a59.74,59.74,0,0,1,8.12-10.75,11,11,0,0,1,2.9-2.41Q112.24,39,107,37.09a35.51,35.51,0,0,1-3.28,16,51.45,51.45,0,0,1-8,11.86c-.32.37-.67.84-.51,1.3a1.39,1.39,0,0,0,.37.5L100,71.25a.49.49,0,0,0,.32.19c.25,0,.37-.29.41-.54a53.42,53.42,0,0,1,5.61-16.45"/><path class="cls-2" d="M90.34,83.93a1.1,1.1,0,0,0-1.59-.56,3.63,3.63,0,0,1-.77.36,17.13,17.13,0,0,1-2.78.57c-.23,0-.09.16-.27.86S84,90,84,90s-3.22,18.8-3.43,20.16-2.87,18.62-3,20.33-.88,8.18-.93,8.82-.52,6.41-.54,6.93.32,1.07.34.61,3.7-13.64,3.7-13.64,3.54-12.75,4-14.07S90.46,98.62,90.67,98s1.85-5,2.27-6.16a.74.74,0,0,0,0-.53c-.3-.93-1.31-4-1.4-4.23Z"/></g><g id="Leg_L" data-name="Leg L"><circle class="cls-1" cx="66.17" cy="18.66" r="12.65"/><path class="cls-2" d="M52.07,16.85s0-5.06-1.44-8-4.34-5.79-6.51-5.79S42,2.39,42,1.67,43,.08,44.41,0a8.65,8.65,0,0,1,3.8.52c.86.38,2.91,2.55,3.55,3.05a6.8,6.8,0,0,0,2.75,1.35,27.24,27.24,0,0,0,4.75.48c1.42,0,3.05,0,3.05,0s-6.94,5.09-7.64,6.83-2.12,5.19-2.12,5.19-.37.12-.42-.22Z"/><path class="cls-2" d="M61.19,31.74a1.11,1.11,0,0,0,.34.22c1,.41,2,.83,2.94,1.29,2,.93,4.27,2,5.67,3.76s1.43,3.63,1.65,5.55a28.51,28.51,0,0,0,1.35,6.53c1.54,4.21,4.52,7.62,7,11.27A87.07,87.07,0,0,1,86.83,72,187.93,187.93,0,0,1,94.7,92c2.26,6.56,4.25,13.19,6.4,19.79.29.92.59,1.84.89,2.77,0,0,3.23,10.18,3.29,10.69s5,17.9,5,17.9l.93,3.4s.12-3.94,0-5.69-2.53-20.31-2.53-20.31l-3.4-21.72-2.86-16.27c-.6-2.73-1.2-5.47-1.79-8.2a3.31,3.31,0,0,0-.2-.7,3.63,3.63,0,0,0-.63-.88c-3-3.43-6.55-6.34-9.82-9.53a82.27,82.27,0,0,1-8.79-9.77A43.57,43.57,0,0,1,77.64,48a23.5,23.5,0,0,1-2.14-5.91,24.3,24.3,0,0,1,.14-10.6c.41-1.75,1-3.44,1.59-5.14,0,0-3.25,3.86-5.67,4.34s-9,.66-9.82.36c-.28-.1-.51-.06-.6.24A.45.45,0,0,0,61.19,31.74Z"/></g><g id="Wing_L" data-name="Wing L"><path class="cls-2" d="M.37,57a2.4,2.4,0,0,1,1,.09l1.77.18c1.17.12,2.35.23,3.54.32a64.31,64.31,0,0,0,7.08.17,34.23,34.23,0,0,0,8.65-1.36,89.56,89.56,0,0,0,9.52-3.94A60.92,60.92,0,0,1,50.6,47.38,31.77,31.77,0,0,1,60.94,48a18.83,18.83,0,0,1,6.61,3c1.53,1.12,2.88,2.46,4.32,3.68s3.15,2.61,4.79,3.84a12.68,12.68,0,0,1,2.55,2.3c2.11,2.76,3.59,6.12,5.17,9.2-4.4-.18-8.95-.65-13-2.41a17.06,17.06,0,0,1-2.49-1.34,36.2,36.2,0,0,1-4.43-3.79,25.16,25.16,0,0,0-6-4.37,13.42,13.42,0,0,0-7.89-1c-2.18.35-4.33,1-6.47,1.5-2.33.57-4.66,1.1-6.95,1.86-3.41,1.13-6.72,2.56-10,4-.46.21-.93.38-1.4.57-1.17.46-2.28,1.07-3.46,1.53a9.61,9.61,0,0,1-3.32.6,22,22,0,0,1-4.12-.42A29.54,29.54,0,0,1,5.85,64a18.23,18.23,0,0,1-4.11-3.09,5.62,5.62,0,0,1-1.72-3,.84.84,0,0,1,.19-.8A.4.4,0,0,1,.37,57Z"/><path class="cls-2" d="M20.84,69.05a1.61,1.61,0,0,1,.48-.27L35.1,63.07l.07,0a54.53,54.53,0,0,1,9.44-2.91c1.77-.38,3.54-.9,5.36-1.13a17.19,17.19,0,0,1,8.5,1.23,6.08,6.08,0,0,1,2.26,1.53.27.27,0,0,1-.18.45c-.45,0-1,.15-1.14.16q-.87.12-1.74.3a46,46,0,0,0-7.32,2.75c-1.94.8-3.84,1.68-5.72,2.59L37.9,71.28l-1.35.65a11.59,11.59,0,0,1-3.38,1.17,29.07,29.07,0,0,1-4.47.18,21.75,21.75,0,0,1-3.33-.23,7.37,7.37,0,0,1-3.19-1.13,3.9,3.9,0,0,1-1.1-1.19c-.23-.38-.61-1.12-.34-1.55A.64.64,0,0,1,20.84,69.05Z"/><path class="cls-2" d="M34.23,75.46a.23.23,0,0,1,.07-.35l9.84-4.69,5.33-2.56c1.73-.83,3.46-1.65,5.25-2.36A21,21,0,0,1,59,64.3a25.7,25.7,0,0,1,3.5-.3,1.38,1.38,0,0,1,.64.08c.49.2.81.71,1.17,1.07a12.05,12.05,0,0,0,1.26,1.11A16.86,16.86,0,0,0,68.51,68c-.11.27-.21.63-.54.72a2,2,0,0,1-.49,0,7.4,7.4,0,0,0-2.48.65c-.81.3-1.59.67-2.38,1l-1.73.77c-.84.34-2.2.91-3,1.31-1.72.83-3.43,1.69-5.13,2.56l-2.81,1.46a18.2,18.2,0,0,1-2.6,1.24,17.27,17.27,0,0,1-4.82.46c-2.66,0-5.38.11-7.46-1.81A7.93,7.93,0,0,1,34.23,75.46Z"/><path class="cls-2" d="M48.27,79.35a4,4,0,0,0,.81-.4l.83-.41c.51-.25,1-.47,1.54-.74l3.28-1.74c2.15-1.12,4.3-2.27,6.47-3.35a38.09,38.09,0,0,1,6.43-2.51c.61-.17,1.23-.33,1.85-.48a6.75,6.75,0,0,1,1.18-.19,2.55,2.55,0,0,1,.67.07c1.84.38,3.59,1.11,5.45,1.44,1.3.23,2.48.25,3.79.41-.11,0-.2.18-.31.24l-.28.15-6.53,3.54a3.43,3.43,0,0,1-.8.43l-.82.45-1.66.9c-1.18.64-2.34,1.32-3.54,1.94A22.76,22.76,0,0,1,63,80.53a21.68,21.68,0,0,1-2.61.66,21.61,21.61,0,0,1-2.89.21c-1.32,0-2.63,0-3.94,0a8.24,8.24,0,0,1-3.11-.52l-.33-.17A17.69,17.69,0,0,1,48.27,79.35Z"/><path class="cls-2" d="M65.86,81.4c3.14-1.57,6.29-3.14,9.33-4.92,1-.58,1.89-1.27,2.86-1.86a23.06,23.06,0,0,1,3-1.48A29.6,29.6,0,0,1,84.37,72c.34-.1.67-.19,1-.27.05,0,.67,1.63.73,1.78l.79,1.93,1.62,4,.7,1.71c0,.11-.4.47-.47.54a7.17,7.17,0,0,1-.52.58,2.88,2.88,0,0,1-.73.4,11.08,11.08,0,0,1-1.71.37L84,83.31c-1.22.19-2.44.35-3.67.48a39.66,39.66,0,0,1-7.39.13c-.82-.07-1.63-.16-2.44-.28l-.91-.15"/></g><g id="Wing_R" data-name="Wing R"><path class="cls-2" d="M185,57a2.4,2.4,0,0,0-1,.09c-.59.05-1.18.12-1.76.18-1.18.12-2.36.23-3.54.32a64.49,64.49,0,0,1-7.09.17A34.3,34.3,0,0,1,163,56.43a89.56,89.56,0,0,1-9.52-3.94,60.92,60.92,0,0,0-18.71-5.11,31.77,31.77,0,0,0-10.34.57,18.91,18.91,0,0,0-6.61,3c-1.53,1.12-2.88,2.46-4.32,3.68s-3.15,2.61-4.78,3.84a12.47,12.47,0,0,0-2.56,2.3c-2.11,2.76-3.59,6.12-5.17,9.2,4.41-.18,9-.65,13-2.41a16.56,16.56,0,0,0,2.49-1.34A36.2,36.2,0,0,0,121,62.41,25.16,25.16,0,0,1,127,58a13.43,13.43,0,0,1,7.89-1c2.18.35,4.33,1,6.47,1.5,2.34.57,4.67,1.1,6.95,1.86,3.41,1.13,6.72,2.56,10,4,.46.21.93.38,1.4.57,1.17.46,2.28,1.07,3.46,1.53a9.61,9.61,0,0,0,3.32.6,22,22,0,0,0,4.12-.42A29.54,29.54,0,0,0,179.56,64a18.23,18.23,0,0,0,4.11-3.09,5.62,5.62,0,0,0,1.72-3,.84.84,0,0,0-.19-.8A.35.35,0,0,0,185,57Z"/><path class="cls-2" d="M164.57,69.05a1.69,1.69,0,0,0-.47-.27l-13.79-5.71-.07,0a54.69,54.69,0,0,0-9.43-2.91c-1.78-.38-3.55-.9-5.36-1.13a17.21,17.21,0,0,0-8.51,1.23,6.08,6.08,0,0,0-2.26,1.53.27.27,0,0,0,.18.45c.45,0,1,.15,1.14.16q.89.12,1.74.3a46,46,0,0,1,7.32,2.75c1.94.8,3.84,1.68,5.72,2.59l6.73,3.27,1.35.65a11.59,11.59,0,0,0,3.38,1.17,29.07,29.07,0,0,0,4.47.18,21.75,21.75,0,0,0,3.33-.23,7.37,7.37,0,0,0,3.19-1.13,3.9,3.9,0,0,0,1.1-1.19c.23-.38.61-1.12.34-1.55A.64.64,0,0,0,164.57,69.05Z"/><path class="cls-2" d="M151.19,75.46a.23.23,0,0,0-.08-.35l-9.83-4.69-5.34-2.56c-1.73-.83-3.46-1.65-5.25-2.36a20.82,20.82,0,0,0-4.32-1.2,25.7,25.7,0,0,0-3.5-.3,1.38,1.38,0,0,0-.64.08c-.49.2-.81.71-1.17,1.07a13.06,13.06,0,0,1-1.25,1.11A17.34,17.34,0,0,1,116.9,68c.11.27.21.63.54.72a2,2,0,0,0,.49,0,7.4,7.4,0,0,1,2.48.65c.81.3,1.59.67,2.38,1l1.73.77c.84.34,2.2.91,3,1.31,1.72.83,3.43,1.69,5.13,2.56l2.81,1.46a18.2,18.2,0,0,0,2.6,1.24,17.27,17.27,0,0,0,4.82.46c2.67,0,5.38.11,7.46-1.81A9.06,9.06,0,0,0,151.19,75.46Z"/><path class="cls-2" d="M137.14,79.35a3.73,3.73,0,0,1-.8-.4l-.84-.41c-.51-.25-1-.47-1.54-.74l-3.28-1.74c-2.15-1.12-4.29-2.27-6.46-3.35a38.52,38.52,0,0,0-6.44-2.51c-.61-.17-1.23-.33-1.84-.48a6.86,6.86,0,0,0-1.19-.19,2.43,2.43,0,0,0-.66.07c-1.84.38-3.6,1.11-5.46,1.44-1.3.23-2.48.25-3.79.41.11,0,.2.18.31.24l.28.15L112,75.38a3.43,3.43,0,0,0,.8.43l.83.45,1.65.9c1.18.64,2.35,1.32,3.55,1.94a22.27,22.27,0,0,0,3.58,1.43,16.09,16.09,0,0,0,5.51.87q2,0,3.93,0a8.2,8.2,0,0,0,3.11-.52l.33-.17A17.69,17.69,0,0,0,137.14,79.35Z"/><path class="cls-2" d="M101.6,72.59s2.26,9.82,2.26,10.45,6.54,1,6.54,1a27.33,27.33,0,0,0,4.52-.66,17,17,0,0,0,3.4-1.8"/></g><text class="cls-3" transform="translate(192.08 102.29)">Стриж &amp; Co</text></g></g></svg>