<svg xmlns="http://www.w3.org/2000/svg" viewBox="0 0 352.03 217.06"><defs><style>.cls-1{fill:none;stroke:#fec722;stroke-miterlimit:10;stroke-width:4px;}.cls-2{fill:#fec722;}.cls-3{font-size:72px;fill:#fff;font-family:Garamond-Italic, Garamond;font-style:italic;letter-spacing:-0.02em;}</style></defs><title>Asset 1</title><g id="Layer_2" data-name="Layer 2"><g id="Layer_2-2" data-name="Layer 2"><g id="Leg_R" data-name="Leg R"><circle class="cls-1" cx="197.49" cy="27.33" r="12.65"/><path class="cls-2" d="M187.73,54.45a59.69,59.69,0,0,1,8.11-10.75,11,11,0,0,1,2.9-2.41q-5.09-2.31-10.34-4.2a35.52,35.52,0,0,1-3.29,16,51.45,51.45,0,0,1-8,11.86c-.32.37-.66.84-.5,1.3a1.28,1.28,0,0,0,.37.5l4.45,4.45a.49.49,0,0,0,.31.19c.25,0,.37-.29.41-.54a53.18,53.18,0,0,1,5.62-16.45"/><path class="cls-2" d="M171.77,83.93a1.11,1.11,0,0,0-1.6-.56,3.63,3.63,0,0,1-.77.36,16.92,16.92,0,0,1-2.78.57c-.23,0-.09.16-.27.86s-.93,4.81-.93,4.81-3.22,18.8-3.43,20.16-2.87,18.62-3,20.33-.88,8.18-.93,8.82-.52,6.41-.54,6.93.32,1.07.34.61,3.71-13.64,3.71-13.64,3.53-12.75,4-14.07,6.33-20.49,6.54-21.09,1.85-5,2.27-6.16a.74.74,0,0,0,0-.53c-.3-.93-1.3-4-1.4-4.23S172.25,85.21,171.77,83.93Z"/></g><g id="Leg_L" data-name="Leg L"><circle class="cls-1" cx="147.59" cy="18.66" r="12.65"/><path class="cls-2" d="M133.49,16.85s0-5.06-1.44-8-4.34-5.79-6.51-5.79-2.17-.72-2.17-1.44,1-1.59,2.46-1.65a8.65,8.65,0,0,1,3.8.52c.86.38,2.92,2.55,3.55,3.05a6.8,6.8,0,0,0,2.75,1.35,27.35,27.35,0,0,0,4.75.48c1.42,0,3,0,3,0s-6.94,5.09-7.64,6.83S134,17.41,134,17.41s-.36.12-.42-.22Z"/><path class="cls-2" d="M142.61,31.74A1.11,1.11,0,0,0,143,32c1,.41,2,.83,2.94,1.29,2,.93,4.28,2,5.68,3.76s1.42,3.63,1.64,5.55a28,28,0,0,0,1.36,6.53c1.53,4.21,4.51,7.62,7,11.27A87.14,87.14,0,0,1,168.26,72a190,190,0,0,1,7.86,20c2.26,6.56,4.26,13.19,6.4,19.79l.9,2.77s3.22,10.18,3.28,10.69,5,17.9,5,17.9l.94,3.4s.12-3.94,0-5.69-2.53-20.31-2.53-20.31L186.7,98.83l-2.86-16.27c-.6-2.73-1.2-5.47-1.79-8.2a3.31,3.31,0,0,0-.2-.7,3.34,3.34,0,0,0-.62-.88c-3-3.43-6.56-6.34-9.83-9.53a82.19,82.19,0,0,1-8.78-9.77A42.56,42.56,0,0,1,159.06,48a23.09,23.09,0,0,1-2.13-5.91,24.15,24.15,0,0,1,.13-10.6c.42-1.75,1-3.44,1.59-5.14,0,0-3.25,3.86-5.66,4.34s-9,.66-9.82.36c-.29-.1-.52-.06-.61.24A.45.45,0,0,0,142.61,31.74Z"/></g><g id="Wing_L" data-name="Wing L"><path class="cls-2" d="M81.79,57a2.47,2.47,0,0,1,1,.09l1.76.18c1.18.12,2.36.23,3.54.32a64.31,64.31,0,0,0,7.08.17,34.23,34.23,0,0,0,8.65-1.36,88.71,88.71,0,0,0,9.52-3.94A60.92,60.92,0,0,1,132,47.38a31.77,31.77,0,0,1,10.34.57,18.83,18.83,0,0,1,6.61,3c1.53,1.12,2.88,2.46,4.32,3.68s3.16,2.61,4.79,3.84a12.73,12.73,0,0,1,2.56,2.3c2.1,2.76,3.58,6.12,5.16,9.2-4.4-.18-9-.65-13.05-2.41a17.06,17.06,0,0,1-2.49-1.34,36.2,36.2,0,0,1-4.43-3.79,25,25,0,0,0-6-4.37,13.42,13.42,0,0,0-7.89-1c-2.18.35-4.33,1-6.47,1.5-2.33.57-4.66,1.1-6.94,1.86-3.41,1.13-6.73,2.56-10,4-.46.21-.93.38-1.4.57-1.17.46-2.28,1.07-3.45,1.53a9.71,9.71,0,0,1-3.33.6,22.06,22.06,0,0,1-4.12-.42A29.54,29.54,0,0,1,87.27,64a18.23,18.23,0,0,1-4.11-3.09,5.62,5.62,0,0,1-1.72-3,.87.87,0,0,1,.19-.8A.4.4,0,0,1,81.79,57Z"/><path class="cls-2" d="M102.26,69.05a1.61,1.61,0,0,1,.48-.27l13.78-5.71.07,0A54.53,54.53,0,0,1,126,60.13c1.78-.38,3.54-.9,5.36-1.13a17.24,17.24,0,0,1,8.51,1.23,6.13,6.13,0,0,1,2.25,1.53.27.27,0,0,1-.18.45c-.44,0-1,.15-1.14.16q-.87.12-1.74.3a46.77,46.77,0,0,0-7.32,2.75c-1.93.8-3.83,1.68-5.72,2.59l-6.73,3.27-1.34.65a11.76,11.76,0,0,1-3.39,1.17,29,29,0,0,1-4.47.18,21.84,21.84,0,0,1-3.33-.23,7.37,7.37,0,0,1-3.19-1.13,4,4,0,0,1-1.1-1.19c-.23-.38-.61-1.12-.34-1.55A.64.64,0,0,1,102.26,69.05Z"/><path class="cls-2" d="M115.65,75.46a.23.23,0,0,1,.07-.35l9.84-4.69,5.33-2.56c1.73-.83,3.47-1.65,5.25-2.36a21.08,21.08,0,0,1,4.33-1.2A25.41,25.41,0,0,1,144,64a1.44,1.44,0,0,1,.65.08c.49.2.81.71,1.17,1.07A12,12,0,0,0,147,66.26,17,17,0,0,0,149.94,68c-.12.27-.22.63-.54.72a2.07,2.07,0,0,1-.5,0,7.46,7.46,0,0,0-2.48.65c-.8.3-1.59.67-2.37,1-.58.25-1.15.52-1.74.77-.83.34-2.2.91-3,1.31-1.72.83-3.43,1.69-5.14,2.56-.94.48-1.87,1-2.8,1.46a18.84,18.84,0,0,1-2.61,1.24,17.27,17.27,0,0,1-4.82.46c-2.66,0-5.37.11-7.46-1.81A9,9,0,0,1,115.65,75.46Z"/><path class="cls-2" d="M129.7,79.35a4.25,4.25,0,0,0,.8-.4l.83-.41c.52-.25,1-.47,1.55-.74l3.28-1.74c2.14-1.12,4.29-2.27,6.46-3.35a37.86,37.86,0,0,1,6.44-2.51c.61-.17,1.22-.33,1.84-.48a6.71,6.71,0,0,1,1.19-.19,2.47,2.47,0,0,1,.66.07c1.84.38,3.6,1.11,5.45,1.44,1.3.23,2.48.25,3.79.41-.11,0-.2.18-.31.24l-.27.15-6.54,3.54a3.36,3.36,0,0,1-.79.43l-.83.45-1.66.9c-1.18.64-2.34,1.32-3.54,1.94a23,23,0,0,1-3.58,1.43,21.37,21.37,0,0,1-2.62.66,21.61,21.61,0,0,1-2.89.21c-1.31,0-2.63,0-3.94,0a8.24,8.24,0,0,1-3.11-.52l-.33-.17A16.62,16.62,0,0,1,129.7,79.35Z"/><path class="cls-2" d="M147.28,81.4c3.14-1.57,6.3-3.14,9.33-4.92,1-.58,1.89-1.27,2.87-1.86a22.34,22.34,0,0,1,3-1.48A29.6,29.6,0,0,1,165.79,72l1-.27s.68,1.63.73,1.78l.79,1.93,1.62,4,.7,1.71c.05.11-.4.47-.47.54a5.67,5.67,0,0,1-.52.58,3,3,0,0,1-.72.4,11,11,0,0,1-1.72.37l-1.82.31q-1.83.28-3.66.48a39.79,39.79,0,0,1-7.4.13c-.82-.07-1.63-.16-2.44-.28l-.9-.15"/></g><g id="Wing_R" data-name="Wing R"><path class="cls-2" d="M266.46,57a2.42,2.42,0,0,0-1,.09c-.59.05-1.17.12-1.76.18-1.18.12-2.36.23-3.54.32a64.37,64.37,0,0,1-7.08.17,34.31,34.31,0,0,1-8.66-1.36A88.55,88.55,0,0,1,235,52.49a61.05,61.05,0,0,0-18.72-5.11A31.7,31.7,0,0,0,205.9,48a19,19,0,0,0-6.62,3c-1.53,1.12-2.87,2.46-4.32,3.68s-3.15,2.61-4.78,3.84a12.73,12.73,0,0,0-2.56,2.3c-2.11,2.76-3.59,6.12-5.17,9.2,4.41-.18,9-.65,13.05-2.41A16.09,16.09,0,0,0,198,66.2a35.56,35.56,0,0,0,4.44-3.79,25.11,25.11,0,0,1,6-4.37,13.46,13.46,0,0,1,7.9-1c2.18.35,4.33,1,6.47,1.5,2.33.57,4.66,1.1,6.94,1.86,3.41,1.13,6.72,2.56,10,4,.47.21.94.38,1.4.57,1.17.46,2.29,1.07,3.46,1.53a9.61,9.61,0,0,0,3.32.6,22,22,0,0,0,4.12-.42A29.45,29.45,0,0,0,261,64a18.51,18.51,0,0,0,4.12-3.09,5.6,5.6,0,0,0,1.71-3,.82.82,0,0,0-.19-.8A.35.35,0,0,0,266.46,57Z"/><path class="cls-2" d="M246,69.05a1.56,1.56,0,0,0-.47-.27l-13.79-5.71-.07,0a54.42,54.42,0,0,0-9.43-2.91c-1.78-.38-3.55-.9-5.36-1.13a17.21,17.21,0,0,0-8.51,1.23,6.08,6.08,0,0,0-2.26,1.53.27.27,0,0,0,.18.45c.45,0,1,.15,1.14.16q.89.12,1.74.3a46,46,0,0,1,7.32,2.75c1.94.8,3.84,1.68,5.72,2.59l6.73,3.27,1.35.65a11.7,11.7,0,0,0,3.38,1.17,29.15,29.15,0,0,0,4.48.18,21.84,21.84,0,0,0,3.33-.23,7.33,7.33,0,0,0,3.18-1.13,4.07,4.07,0,0,0,1.11-1.19c.22-.38.6-1.12.34-1.55A.69.69,0,0,0,246,69.05Z"/><path class="cls-2" d="M232.61,75.46a.23.23,0,0,0-.08-.35l-9.83-4.69-5.34-2.56c-1.73-.83-3.46-1.65-5.25-2.36a20.82,20.82,0,0,0-4.32-1.2,25.7,25.7,0,0,0-3.5-.3,1.4,1.4,0,0,0-.64.08c-.49.2-.81.71-1.17,1.07a12,12,0,0,1-1.25,1.11A17,17,0,0,1,198.32,68c.12.27.22.63.54.72a2,2,0,0,0,.49,0,7.34,7.34,0,0,1,2.48.65c.81.3,1.59.67,2.38,1l1.73.77c.84.34,2.21.91,3,1.31,1.72.83,3.43,1.69,5.13,2.56l2.81,1.46a18.2,18.2,0,0,0,2.6,1.24,17.31,17.31,0,0,0,4.83.46c2.66,0,5.37.11,7.45-1.81A8,8,0,0,0,232.61,75.46Z"/><path class="cls-2" d="M218.56,79.35a4,4,0,0,1-.8-.4l-.84-.41c-.51-.25-1-.47-1.54-.74l-3.28-1.74c-2.15-1.12-4.29-2.27-6.46-3.35a38.19,38.19,0,0,0-6.44-2.51c-.61-.17-1.22-.33-1.84-.48a6.86,6.86,0,0,0-1.19-.19,2.47,2.47,0,0,0-.66.07c-1.84.38-3.6,1.11-5.45,1.44-1.31.23-2.48.25-3.8.41.11,0,.2.18.31.24l.28.15,6.54,3.54a3.17,3.17,0,0,0,.79.43l.83.45,1.65.9c1.19.64,2.35,1.32,3.55,1.94a22.65,22.65,0,0,0,3.58,1.43,16.09,16.09,0,0,0,5.51.87c1.31,0,2.62,0,3.94,0a8.15,8.15,0,0,0,3.1-.52,3.59,3.59,0,0,0,.34-.17A16.62,16.62,0,0,0,218.56,79.35Z"/><path class="cls-2" d="M183,72.59s2.25,9.82,2.25,10.45,6.54,1,6.54,1a27.19,27.19,0,0,0,4.52-.66,17.25,17.25,0,0,0,3.41-1.8"/></g><text class="cls-3" transform="translate(0 194.39)">Стриж &amp; Co</text></g></g></svg>