<svg xmlns="http://www.w3.org/2000/svg" viewBox="0 0 594.84 704.84"><defs><style>.cls-1,.cls-2{fill:#fff;}.cls-1{stroke:#000;stroke-miterlimit:10;stroke-width:10px;}.cls-3{font-size:135px;font-family:Candara, Candara;}</style></defs><title>Asset 6</title><g id="Layer_2" data-name="Layer 2"><g id="Layer_1-2" data-name="Layer 1"><path d="M407.94,460.06V213.89h86.62a24.86,24.86,0,0,1,24.83,24.84V435.22a24.87,24.87,0,0,1-24.83,24.84Zm2.52-25.7h63.25a27.86,27.86,0,0,0,27.83-27.84V267.42a27.86,27.86,0,0,0-27.83-27.83H410.46Z"/><path d="M494.56,215.39a23.36,23.36,0,0,1,23.33,23.34V435.22a23.36,23.36,0,0,1-23.33,23.34H409.44v-22.7h64.27a29.37,29.37,0,0,0,29.34-29.34V267.42a29.37,29.37,0,0,0-29.34-29.33H409.44v-22.7h85.12m0-3H406.44V461.56h88.12a26.33,26.33,0,0,0,26.33-26.34V238.73a26.33,26.33,0,0,0-26.33-26.34ZM412,432.86V241.09h61.75a26.33,26.33,0,0,1,26.34,26.33v139.1a26.34,26.34,0,0,1-26.34,26.34Z"/><g id="body"><path d="M191.67,524.89a42.26,42.26,0,0,1-42.21-42.21V158.09h295V482.68a42.27,42.27,0,0,1-42.22,42.21Z"/><path d="M443,159.59V482.68a40.76,40.76,0,0,1-40.72,40.71H191.67A40.75,40.75,0,0,1,151,482.68V159.59H443m3-3H148V482.68a43.71,43.71,0,0,0,43.71,43.71H402.29A43.71,43.71,0,0,0,446,482.68V156.59Z"/></g><g id="fume"><path class="cls-1" d="M429.34,79.93a53,53,0,0,0-27.13,6.57A61.89,61.89,0,0,0,286,44.05,42.56,42.56,0,0,0,211.11,65a30.37,30.37,0,0,0-42.25,27.56,44.55,44.55,0,1,0-.15,71.83,40.17,40.17,0,0,0,31.68,18.75v55a19.19,19.19,0,0,0,19.19,19.19h1.84a19.19,19.19,0,0,0,19.19-19.19v-12a7.4,7.4,0,0,1,.17-1.63c1.23-5.6,3.45-12,7.32-13.32a15.42,15.42,0,0,0,1.61-.64,3,3,0,0,1,4.3,2.68V294a20.9,20.9,0,0,0,20.9,20.9h3.15A20.9,20.9,0,0,0,299,294V190.19a54.69,54.69,0,0,0,14.75-13.28,24.83,24.83,0,0,0,24.77-7.65,47.72,47.72,0,0,0,46.11-5.18,53.22,53.22,0,1,0,44.75-84.15Z"/></g><g id="flick"><path class="cls-2" d="M382.54,454.05l.23-.44a36.76,36.76,0,0,0,4.31-17.31V279.51c0-2.24,1.46-4.06,3.25-4.06h13.25c1.44,0,2.6,1.46,2.6,3.26l-.45,146.53C405.8,446.16,392,457.2,382.54,454.05Z"/><rect class="cls-2" x="387.27" y="228.14" width="18.29" height="30.75" rx="7.08" ry="7.08"/></g><text class="cls-3" transform="translate(0 666.54)">ПИВАСИЙ</text></g></g></svg>