<svg xmlns="http://www.w3.org/2000/svg" viewBox="0 0 454.42 431.79"><defs><style>.cls-1{fill:#fff;stroke-width:4px;}.cls-1,.cls-2{stroke:#000;stroke-miterlimit:10;}.cls-2{font-size:93px;font-family:DaunPenh, DaunPenh;letter-spacing:0em;}</style></defs><title>Asset 1</title><g id="Layer_2" data-name="Layer 2"><g id="Layer_1-2" data-name="Layer 1"><path class="cls-1" d="M103.79,62.41a15.64,15.64,0,0,0-15.48-.77,15.48,15.48,0,0,0-4.5,3.44,15.81,15.81,0,0,0-2.93,4.69,14.69,14.69,0,0,0,.51,10.31A19.41,19.41,0,0,0,84,84.44c1.51,2.78,4.2,4.13,6.22,5.48,5.3,2.52,10.31,5.52,15.36,8.49,1.69,1,3.38,2,5.07,3,15.91,6.72,39.46,24.22,24,39.7-8.75,8.07-24.22-1.35-34.66-6.68-1.27-.7-2.51-1.44-3.73-2.23s-2.42-1.63-3.58-2.53c-1.84-1.34-3.62-2.76-5.37-4.23-3.48-2.94-6.8-6.07-10-9.21q-2.6-2.58-5-5.31c-1.43-1.58-2.81-3.2-4.16-4.85s-2.65-3.33-3.93-5a123.64,123.64,0,0,1-9.59-14.35c-1.42-2.41-2.78-4.8-4.16-7.17-6-9.06-9.32-19.83-13.43-30.14q-1.2-3.32-2.24-6.65a109,109,0,0,1-5.09-27.45A14.09,14.09,0,0,0,27,7.9a14.84,14.84,0,0,0-4.1-4.12c-7.41-4.71-15.48.67-18.17,7.4A57.39,57.39,0,0,0,2.82,38.62c.36,2.27.83,4.54,1.39,6.79C8.83,61.49,12.85,77.53,19,92.65c.88,2.16,1.8,4.31,2.78,6.43,11.22,20.44,18,44,35.29,59.45,1.68,1.73,3.4,3.43,5.18,5.09,7.11,6.6,15.22,12.29,23.53,17.69l4.3,2.82,23.74,15.57,5,3.27a20.38,20.38,0,0,0,3.61,1.9c7.14,2.88,13.18,6.9,17.5,12.64a12.79,12.79,0,0,0,14.84,4.21c1.94-.75,3.9-1.44,5.88-2.1s3.69-1.22,5.54-1.83c12.85-2.71,21.59-12.8,33-17.51,1.83-.92,3.52-1.83,5.19-2.62a7.4,7.4,0,0,0,4.12-7.84c-1.17-7.92,3.48-16.45.79-24.54-1.25-2.48-1.34-5-2.84-7a7.27,7.27,0,0,1-.81-1.41L203.93,153,181.44,102.3a13.61,13.61,0,0,0-6.69-6.81L155,86.3l-7-3.25c-9.4-4.57-18.15-7.94-27.56-12.85-1.91-.87-3.82-1.74-5.73-2.63s-3.82-1.78-5.72-2.71l-5.26-2.45Z"/><path class="cls-1" d="M350.63,62.41a15.64,15.64,0,0,1,15.48-.77,15.35,15.35,0,0,1,4.5,3.44,16,16,0,0,1,2.94,4.69A14.75,14.75,0,0,1,373,80.08a19.84,19.84,0,0,1-2.61,4.36c-1.5,2.78-4.2,4.13-6.22,5.48-5.29,2.52-10.31,5.52-15.36,8.49-1.68,1-3.37,2-5.06,3-15.91,6.72-39.47,24.22-24,39.7,8.75,8.07,24.23-1.35,34.67-6.68,1.26-.7,2.51-1.44,3.73-2.23s2.41-1.63,3.58-2.53c1.83-1.34,3.62-2.76,5.36-4.23,3.49-2.94,6.81-6.07,10-9.21q2.61-2.58,5.05-5.31c1.42-1.58,2.81-3.2,4.15-4.85s2.66-3.33,3.93-5a122.37,122.37,0,0,0,9.59-14.35c1.42-2.41,2.79-4.8,4.17-7.17,6-9.06,9.32-19.83,13.42-30.14q1.2-3.32,2.24-6.65a109.44,109.44,0,0,0,5.1-27.45A14.08,14.08,0,0,1,427.4,7.9a14.88,14.88,0,0,1,4.11-4.12c7.4-4.71,15.47.67,18.17,7.4a57.51,57.51,0,0,1,1.92,27.44c-.36,2.27-.83,4.54-1.39,6.79-4.61,16.08-8.63,32.12-14.79,47.24-.88,2.16-1.81,4.31-2.78,6.43-11.23,20.44-18,44-35.29,59.45-1.69,1.73-3.41,3.43-5.18,5.09a173.46,173.46,0,0,1-23.53,17.69l-4.3,2.82L340.6,199.7l-5,3.27a20.47,20.47,0,0,1-3.62,1.9c-7.13,2.88-13.17,6.9-17.49,12.64a12.81,12.81,0,0,1-14.85,4.21c-1.93-.75-3.9-1.44-5.88-2.1-1.83-.62-3.68-1.22-5.54-1.83-12.84-2.71-21.59-12.8-33-17.51-1.82-.92-3.51-1.83-5.19-2.62a7.41,7.41,0,0,1-4.11-7.84c1.16-7.92-3.49-16.45-.79-24.54,1.24-2.48,1.34-5,2.83-7a6.79,6.79,0,0,0,.81-1.41l1.74-3.92L273,102.3a13.63,13.63,0,0,1,6.7-6.81L299.4,86.3l7-3.25c9.39-4.57,18.14-7.94,27.55-12.85,1.92-.87,3.83-1.74,5.73-2.63s3.82-1.78,5.73-2.71l5.25-2.45Z"/><text class="cls-2" transform="translate(149.26 296.9)">SAVE<tspan x="-148.32" y="72">BLOGGERS Inc.</tspan></text></g></g></svg>